<svg version="1.1" id="Layer_1" xmlns="http://www.w3.org/2000/svg" xmlns:xlink="http://www.w3.org/1999/xlink" x="0px" y="0px"
	 width="100%" viewBox="0 0 976 656" enable-background="new 0 0 976 656" xml:space="preserve">
<path fill="#000000" opacity="1.000000" stroke="none" 
	d="
M301.821777,561.223450 
	C301.580872,558.944763 301.427155,557.120544 301.140289,555.317505 
	C300.880554,553.684875 300.349792,552.078308 301.126160,550.142761 
	C307.399719,548.155090 314.138397,548.636902 320.678101,548.010498 
	C357.827148,544.452026 393.916718,536.089478 429.278961,524.480225 
	C491.956207,503.903503 550.026733,474.163574 603.811890,436.002533 
	C635.150085,413.767822 664.542419,389.233185 691.009033,361.344727 
	C721.493103,329.222931 747.715271,294.109772 764.913635,252.914062 
	C774.033691,231.068558 780.064880,208.503677 779.706543,184.593323 
	C779.134827,146.450287 762.519958,117.137848 730.635010,96.508644 
	C708.382751,82.111649 683.465881,75.128387 657.508911,71.375160 
	C643.155396,69.299728 628.701599,68.278725 614.207825,68.353256 
	C568.577087,68.587914 524.069275,76.252785 480.558807,89.637772 
	C395.254120,115.879807 318.087646,157.397629 249.597488,214.643860 
	C208.035019,249.383072 171.656738,288.809998 144.671082,336.210754 
	C131.312195,359.675781 120.949936,384.333557 116.842407,411.211334 
	C110.593407,452.101959 120.501717,487.527832 152.921967,515.010132 
	C156.467316,518.015503 160.341614,520.682068 164.284943,523.151917 
	C167.040070,524.877625 167.405106,526.389465 165.618820,529.128601 
	C160.338974,537.225037 157.606430,546.266479 156.343124,555.798828 
	C155.640274,561.102234 155.190842,561.376587 150.541443,558.818665 
	C132.306641,548.786804 117.096237,535.227783 104.494041,518.743408 
	C82.189537,489.568054 74.002991,456.326538 76.592880,420.112701 
	C79.425522,380.504578 93.708344,344.714478 113.598663,310.889648 
	C138.766861,268.089478 171.432449,231.589966 208.376053,198.714417 
	C259.321167,153.379135 316.510040,117.615486 377.971069,88.515594 
	C426.045624,65.753777 476.148285,49.041702 528.512817,39.243645 
	C563.718994,32.656136 599.234375,29.991875 634.924622,32.030197 
	C675.280579,34.334980 714.127808,42.986843 748.839050,65.023323 
	C784.662720,87.766029 806.727173,120.043121 813.812866,162.011124 
	C818.672668,190.795624 815.111572,219.066666 806.811035,246.846329 
	C794.068359,289.492767 772.287903,327.129364 743.760925,361.105225 
	C698.394470,415.137024 644.582336,459.034882 584.207642,495.215179 
	C535.823792,524.209839 484.885284,547.461365 430.923767,563.918152 
	C396.303802,574.476379 361.068268,582.223572 324.929718,585.408325 
	C318.298950,585.992615 311.678955,586.707153 305.042999,587.219055 
	C303.123260,587.367126 301.035919,587.813599 298.863495,585.996704 
	C300.083679,578.106140 302.662689,570.070923 301.821777,561.223450 
z"/>
<path fill="#000000" opacity="1.000000" stroke="none" 
	d="
M335.534241,227.663330 
	C352.475769,190.586792 380.808197,168.321579 420.608185,162.185532 
	C479.342468,153.130325 534.852295,192.250168 545.201721,251.503250 
	C555.413818,309.969788 520.295166,363.528656 462.805389,378.324829 
	C406.931305,392.705139 347.479553,358.377319 331.395905,302.713562 
	C324.040588,277.257599 325.342163,252.448578 335.534241,227.663330 
z"/>
<path fill="#000000" opacity="1.000000" stroke="none" 
	d="
M627.068787,355.060547 
	C590.609558,395.510590 546.947815,425.648407 498.781921,449.540802 
	C462.760620,467.408966 424.952881,480.088226 385.082001,485.937805 
	C352.180450,490.764893 319.363586,490.958740 287.133423,481.259857 
	C257.327240,472.290436 233.271362,455.838776 219.475052,426.994080 
	C208.902557,404.889557 208.260086,381.637268 213.678192,358.179382 
	C221.994690,322.172852 241.060394,291.984375 265.436768,264.810211 
	C265.980682,264.203857 266.663513,263.722046 267.285675,263.178558 
	C269.199402,264.343933 268.333374,265.977112 268.076599,267.268280 
	C264.371063,285.902191 264.226501,304.640137 266.499115,323.422485 
	C266.821930,326.090515 266.378265,328.199615 265.093323,330.481598 
	C258.031403,343.023254 252.277664,356.102325 249.538361,370.333130 
	C243.201523,403.253693 257.963928,430.057129 289.374878,442.691406 
	C312.530426,452.005188 336.762054,453.300873 361.150055,451.120087 
	C430.875519,444.885101 492.051300,416.958618 547.769592,375.904510 
	C575.590576,355.405579 599.946106,331.329376 619.259644,302.515472 
	C630.456238,285.811218 639.441772,268.010040 643.042053,247.945450 
	C644.610779,239.202667 644.780762,230.423080 643.108215,221.661545 
	C642.615662,219.081482 642.141357,216.651260 645.617859,215.708298 
	C656.038635,212.881729 665.538147,208.208847 673.968262,201.412506 
	C674.437561,201.034103 675.140991,200.946121 676.155457,200.565277 
	C679.220764,206.737762 680.293091,213.279678 681.236206,219.774017 
	C684.433228,241.788712 680.298828,262.864044 672.448181,283.360504 
	C662.177551,310.174927 646.189331,333.406555 627.068787,355.060547 
z"/>
<path fill="#000000" opacity="1.000000" stroke="none" 
	d="
M264.102722,569.565796 
	C260.091461,588.252014 250.115479,598.369446 233.022888,601.478699 
	C210.231995,605.624634 188.845627,586.764771 189.895477,563.446167 
	C190.721893,545.090576 204.284546,530.302490 222.493088,527.903259 
	C240.135162,525.578674 256.796631,536.198853 262.484131,553.356689 
	C264.188904,558.499573 264.591187,563.760254 264.102722,569.565796 
z"/>
<path fill="#000000" opacity="1.000000" stroke="none" 
	d="
M592.128052,153.469543 
	C587.916870,131.084717 601.414307,115.397987 615.145020,110.372009 
	C634.479919,103.294685 656.193115,112.909805 663.090454,131.908463 
	C670.362732,151.940018 660.471375,173.426666 640.803650,180.321411 
	C620.939880,187.284866 599.597168,176.765991 593.022827,156.762558 
	C592.711670,155.815964 592.501465,154.836151 592.128052,153.469543 
z"/>
</svg>