<svg version="1.1" id="Layer_1" xmlns="http://www.w3.org/2000/svg" xmlns:xlink="http://www.w3.org/1999/xlink" x="0px" y="0px"
	 width="100%" viewBox="0 0 1008 672" enable-background="new 0 0 1008 672" xml:space="preserve">
<path fill="#000000" opacity="1.000000" stroke="none" 
	d="
M709.884155,375.912598 
	C653.557739,415.566162 595.725220,452.173523 536.262451,486.228302 
	C489.833618,512.818481 442.612366,537.887085 394.157043,560.586609 
	C343.130005,584.490967 291.297089,606.406006 237.019150,621.959961 
	C208.313766,630.185852 179.271423,636.858337 149.107224,636.134583 
	C140.596893,635.930420 132.156128,634.675903 124.147232,631.623596 
	C103.293251,623.675659 95.621643,604.263489 104.367294,581.964844 
	C111.157249,564.652466 122.030670,549.908325 133.741272,535.757812 
	C157.826675,506.654236 185.289185,480.894440 213.704819,456.140442 
	C231.164307,440.930817 248.963547,426.109344 266.716797,411.240814 
	C269.236359,409.130615 269.868195,407.052155 269.359589,403.883026 
	C256.626465,324.542999 274.836182,253.321594 326.744110,191.665695 
	C367.265564,143.534607 419.297546,114.191185 481.270508,104.132515 
	C554.232422,92.290253 620.855225,108.803810 680.159302,153.327972 
	C683.711426,155.994858 686.364563,156.397079 690.403076,154.618149 
	C729.902100,137.218994 769.937073,121.181984 811.201660,108.395233 
	C834.281921,101.243301 857.635315,95.089989 881.656555,92.111931 
	C895.372803,90.411446 909.175171,89.723923 922.898438,92.872597 
	C948.827759,98.821861 953.555664,118.495506 948.453247,138.139496 
	C943.325439,157.881042 932.382080,174.609665 920.155334,190.560135 
	C890.882874,228.747879 855.619141,260.965179 819.107544,291.959717 
	C784.145996,321.638550 747.581665,349.213837 709.884155,375.912598 
M500.185730,317.744537 
	C461.694153,341.305695 423.199432,364.861786 384.712189,388.430023 
	C363.552002,401.387726 342.435333,414.417053 321.220123,427.283997 
	C317.751556,429.387665 316.661560,431.745026 318.265259,435.507660 
	C320.157288,439.946686 321.831451,444.478149 323.627594,448.958527 
	C325.171631,452.810028 327.600159,453.571655 331.001190,451.057587 
	C331.933655,450.368317 333.007843,449.873108 334.003784,449.267120 
	C376.684052,423.295166 419.380463,397.349579 462.037781,371.339996 
	C528.018372,331.109497 593.970276,290.832031 659.939270,250.582504 
	C670.601562,244.077133 681.286621,237.608963 691.966370,231.132278 
	C698.775391,227.002930 698.921387,226.319061 693.903809,220.422943 
	C691.422485,217.507309 688.745300,214.752640 686.356018,211.765747 
	C683.291870,207.935165 680.242310,207.774109 676.042419,210.346008 
	C617.673645,246.089615 559.225464,281.703583 500.185730,317.744537 
M187.422043,588.129639 
	C172.663101,591.415344 157.904160,594.700989 143.145203,597.986694 
	C143.224854,598.462585 143.304489,598.938538 143.384125,599.414490 
	C147.562378,600.318787 151.838898,600.642395 156.096481,600.500183 
	C173.991714,599.902466 191.453918,596.451782 208.737381,592.041748 
	C256.343262,579.894775 301.863861,561.943176 346.693909,542.130981 
	C404.342651,516.653625 460.291962,487.816223 514.941528,456.445679 
	C603.202759,405.780975 688.367004,350.467285 768.062561,287.018158 
	C808.250244,255.022949 846.935913,221.354324 880.827209,182.551224 
	C891.910461,169.861755 902.411316,156.713745 910.106506,141.587418 
	C911.893738,138.074280 913.626526,134.517731 913.514160,130.273911 
	C911.073059,130.457596 910.248596,132.286469 909.107544,133.601517 
	C894.043457,150.962433 879.156738,168.479431 863.945190,185.709778 
	C838.516418,214.513138 810.064148,240.177536 780.542969,264.653534 
	C717.330505,317.062927 649.838135,363.505707 580.300049,407.008667 
	C530.436768,438.203186 479.497925,467.583496 427.118164,494.372681 
	C350.615540,533.499268 272.839783,569.457703 187.422043,588.129639 
M565.180847,147.613403 
	C549.382690,157.213562 533.572754,166.794556 517.788391,176.417282 
	C452.375092,216.295578 387.063934,256.343201 321.435913,295.864838 
	C313.650970,300.553009 309.228363,306.026825 308.263977,314.701599 
	C307.997467,317.098694 306.000671,319.991241 308.201508,321.784271 
	C310.643158,323.773529 312.763855,320.831543 314.722229,319.642822 
	C387.764465,275.307281 460.763977,230.901276 533.766113,186.499725 
	C550.558105,176.286484 567.343994,166.063248 584.117065,155.819061 
	C585.913818,154.721664 588.677063,153.968628 588.461304,151.504242 
	C588.209351,148.626221 585.044556,148.797668 582.966919,148.050507 
	C580.467529,147.151657 577.857544,146.562378 575.300476,145.821655 
	C571.925232,144.843948 568.720459,144.960190 565.180847,147.613403 
M777.998352,217.479630 
	C788.388245,208.087814 799.096130,199.019699 808.967468,188.183670 
	C807.526001,187.821625 807.013245,187.506546 806.637024,187.625031 
	C784.731384,194.523697 763.335083,202.770294 742.342346,212.069046 
	C738.778809,213.647537 738.430420,216.170670 740.466003,219.358139 
	C743.595581,224.258682 746.808289,229.123657 749.608887,234.211121 
	C751.740112,238.082489 753.884583,238.177826 756.998291,235.464188 
	C763.767151,229.565109 770.640930,223.786469 777.998352,217.479630 
M263.669128,526.121216 
	C278.050171,520.423828 292.418427,514.693848 306.821136,509.051758 
	C310.481445,507.617889 311.315369,505.789307 308.930969,502.326874 
	C305.632080,497.536713 302.728088,492.474548 299.657104,487.527527 
	C296.570831,482.555817 296.047058,482.396271 291.354614,486.179596 
	C276.580231,498.091766 262.521820,510.815796 248.784119,523.902466 
	C245.592255,526.943115 242.238998,529.814331 238.959991,532.763550 
	C239.329956,533.248718 239.699905,533.733948 240.069870,534.219177 
	C247.944031,532.405273 255.250763,528.790161 263.669128,526.121216 
z"/>
<path fill="#000000" opacity="1.000000" stroke="none" 
	d="
M497.760437,543.702148 
	C596.341797,490.087402 690.670776,430.484406 780.581299,363.216522 
	C781.615234,383.739136 778.689636,403.510895 773.708801,422.859161 
	C758.002686,483.869598 724.810059,533.367859 673.459045,569.979980 
	C625.799561,603.960144 572.243286,619.826599 513.739990,617.846741 
	C476.944519,616.601562 441.964294,607.588806 408.974121,590.212830 
	C438.667267,574.772095 468.346466,559.883850 497.760437,543.702148 
z"/>
</svg>